<svg width="24" height="24" viewBox="0 0 24 24" fill="none" xmlns="http://www.w3.org/2000/svg">
<path d="M6.24994 3.99999C6.24994 3.58578 6.58573 3.24999 6.99994 3.24999C7.41416 3.24999 7.74994 3.58578 7.74994 3.99999V18.1894L10.4697 15.4697C10.7626 15.1768 11.2373 15.1768 11.5302 15.4697C11.8231 15.7626 11.8231 16.2374 11.5302 16.5303L7.53022 20.5303C7.23732 20.8232 6.76256 20.8232 6.46967 20.5303L2.46967 16.5303C2.17678 16.2374 2.17678 15.7626 2.46967 15.4697C2.76256 15.1768 3.23732 15.1768 3.53022 15.4697L6.24994 18.1894V3.99999ZM16.2499 20V5.81054L13.5302 8.53027C13.2373 8.82316 12.7626 8.82316 12.4697 8.53027C12.1768 8.23737 12.1768 7.76261 12.4697 7.46972L16.4697 3.46972L16.5263 3.41796C16.8209 3.17765 17.2556 3.19512 17.5302 3.46972L21.5302 7.46972C21.8231 7.76261 21.8231 8.23737 21.5302 8.53027C21.2373 8.82316 20.7626 8.82316 20.4697 8.53027L17.7499 5.81054V20C17.7499 20.4142 17.4142 20.75 16.9999 20.75C16.5857 20.75 16.2499 20.4142 16.2499 20Z" fill="black"/>
</svg>
