<svg preserveAspectRatio="none" overflow="visible" style="display: block;" width="24" height="24" viewBox="0 0 24 24" fill="none" xmlns="http://www.w3.org/2000/svg">
<g id="BriefcaseBusiness">
<g id="Vector">
<path d="M12.0098 11.25C12.424 11.25 12.7598 11.5858 12.7598 12C12.7598 12.4142 12.424 12.75 12.0098 12.75H12C11.5858 12.75 11.25 12.4142 11.25 12C11.25 11.5858 11.5858 11.25 12 11.25H12.0098Z" fill="#404040"/>
<path d="M15.25 6V4C15.25 3.66848 15.1182 3.35063 14.8838 3.11621C14.6494 2.88179 14.3315 2.75 14 2.75H10C9.66848 2.75 9.35063 2.88179 9.11621 3.11621C8.88179 3.35063 8.75 3.66848 8.75 4V6C8.75 6.41421 8.41421 6.75 8 6.75C7.58579 6.75 7.25 6.41421 7.25 6V4C7.25 3.27065 7.53994 2.57139 8.05566 2.05566C8.57139 1.53994 9.27065 1.25 10 1.25H14C14.7293 1.25 15.4286 1.53994 15.9443 2.05566C16.4601 2.57139 16.75 3.27065 16.75 4V6C16.75 6.41421 16.4142 6.75 16 6.75C15.5858 6.75 15.25 6.41421 15.25 6Z" fill="#404040"/>
<path d="M21.587 12.3741C21.9326 12.146 22.3978 12.2413 22.626 12.5869C22.8541 12.9326 22.7588 13.3978 22.4131 13.626C19.3233 15.6659 15.7025 16.753 12 16.753C8.29762 16.753 4.67674 15.6659 1.58695 13.626C1.24132 13.3978 1.14595 12.9326 1.37406 12.5869C1.60225 12.2413 2.06746 12.146 2.41312 12.3741C5.25772 14.2521 8.59141 15.253 12 15.253C15.4087 15.253 18.7424 14.2521 21.587 12.3741Z" fill="#404040"/>
<path d="M21.25 8C21.25 7.30964 20.6904 6.75 20 6.75H4C3.30964 6.75 2.75 7.30964 2.75 8V18C2.75 18.6904 3.30964 19.25 4 19.25H20C20.6904 19.25 21.25 18.6904 21.25 18V8ZM22.75 18C22.75 19.5188 21.5188 20.75 20 20.75H4C2.48122 20.75 1.25 19.5188 1.25 18V8C1.25 6.48122 2.48122 5.25 4 5.25H20C21.5188 5.25 22.75 6.48122 22.75 8V18Z" fill="#404040"/>
</g>
</g>
</svg>
