<svg preserveAspectRatio="none" overflow="visible" style="display: block;" width="24" height="24" viewBox="0 0 24 24" fill="none" xmlns="http://www.w3.org/2000/svg">
<g id="Bullet nimber">
<g id="Vector">
<path d="M21 4.25C21.4142 4.25 21.75 4.58579 21.75 5C21.75 5.41421 21.4142 5.75 21 5.75H11C10.5858 5.75 10.25 5.41421 10.25 5C10.25 4.58579 10.5858 4.25 11 4.25H21Z" fill="#404040"/>
<path d="M21 11.25C21.4142 11.25 21.75 11.5858 21.75 12C21.75 12.4142 21.4142 12.75 21 12.75H11C10.5858 12.75 10.25 12.4142 10.25 12C10.25 11.5858 10.5858 11.25 11 11.25H21Z" fill="#404040"/>
<path d="M21 18.25C21.4142 18.25 21.75 18.5858 21.75 19C21.75 19.4142 21.4142 19.75 21 19.75H11C10.5858 19.75 10.25 19.4142 10.25 19C10.25 18.5858 10.5858 18.25 11 18.25H21Z" fill="#404040"/>
<path d="M4.25 9V4.75H4C3.58579 4.75 3.25 4.41421 3.25 4C3.25 3.58579 3.58579 3.25 4 3.25H5C5.41421 3.25 5.75 3.58579 5.75 4V9C5.75 9.41421 5.41421 9.75 5 9.75C4.58579 9.75 4.25 9.41421 4.25 9Z" fill="#404040"/>
<path d="M6 8.25C6.41421 8.25 6.75 8.58579 6.75 9C6.75 9.41421 6.41421 9.75 6 9.75H4C3.58579 9.75 3.25 9.41421 3.25 9C3.25 8.58579 3.58579 8.25 4 8.25H6Z" fill="#404040"/>
<path d="M5.24961 16.4998C5.24961 16.3491 5.20464 16.2015 5.11973 16.077C5.03483 15.9525 4.91425 15.8566 4.77402 15.8016C4.63368 15.7465 4.47959 15.7348 4.33262 15.7684C4.18573 15.802 4.05225 15.8795 3.9498 15.99C3.66821 16.2936 3.19394 16.3115 2.89023 16.0301C2.58652 15.7485 2.5687 15.2743 2.8502 14.9705C3.15767 14.6389 3.55776 14.4072 3.99863 14.3064C4.43955 14.2057 4.90083 14.2399 5.32188 14.4051C5.74285 14.5702 6.10422 14.8586 6.35898 15.2322C6.61371 15.6058 6.74961 16.0476 6.74961 16.4998C6.74961 17.1114 6.49497 17.62 6.19297 18.0213C5.89542 18.4166 5.51481 18.7572 5.18613 19.0369C5.09708 19.1127 5.01333 19.1834 4.93418 19.2498H6.49961C6.91376 19.2498 7.2495 19.5857 7.24961 19.9998C7.24961 20.414 6.91382 20.7498 6.49961 20.7498H3.4C2.98579 20.7498 2.65 20.414 2.65 19.9998C2.65008 19.4337 3.00687 19.0003 3.26719 18.7312C3.54446 18.4446 3.91936 18.1446 4.21348 17.8943C4.53477 17.6209 4.80478 17.3723 4.99473 17.1199C5.18013 16.8736 5.24961 16.6755 5.24961 16.4998Z" fill="#404040"/>
</g>
</g>
</svg>
