<svg width="24" height="24" viewBox="0 0 24 24" fill="none" xmlns="http://www.w3.org/2000/svg">
<path d="M20.2503 10C20.2503 6.96715 19.598 5.03373 18.8186 3.34768C18.0268 4.17556 17.2021 4.7736 16.0852 5.25589C14.6598 5.87135 12.7766 6.28888 9.94167 6.83596C9.93652 6.83696 9.93121 6.83801 9.92604 6.83889C8.38069 7.10295 6.9909 7.93903 6.03249 9.17971C5.07424 10.4204 4.61738 11.9763 4.75222 13.5381C4.88718 15.0999 5.60422 16.5543 6.761 17.6123C7.91777 18.6702 9.42982 19.2547 10.9973 19.25H11.0003L11.4505 19.2383C16.0919 18.9885 20.2503 14.9139 20.2503 10ZM21.7503 10C21.7503 15.9273 16.6214 20.7483 11.0012 20.7491L11.0022 20.75C9.05816 20.7559 7.18286 20.0308 5.74831 18.7188C4.31387 17.4068 3.42438 15.6037 3.2571 13.667C3.08989 11.7302 3.65755 9.80121 4.84597 8.26272C6.03109 6.72855 7.74765 5.69374 9.65749 5.36331C12.5226 4.81039 14.2409 4.41847 15.4905 3.87893C16.6878 3.3619 17.4708 2.70171 18.4163 1.52932L18.4807 1.45901C18.6394 1.30671 18.8585 1.23004 19.0803 1.25393C19.3341 1.28132 19.557 1.43677 19.6712 1.66507C20.6951 3.71295 21.7503 6.0142 21.7503 10Z" fill="#404040"/>
<path d="M1.25 21C1.25 17.6361 3.35918 14.9731 6.93457 14.2647C8.05228 14.0429 9.21104 13.5746 10.2178 13.0342C11.2305 12.4906 12.0383 11.9012 12.4697 11.4697C12.7626 11.1768 13.2374 11.1768 13.5303 11.4697C13.8232 11.7626 13.8232 12.2374 13.5303 12.5303C12.9617 13.0988 12.0191 13.7691 10.9268 14.3555C9.82866 14.9449 8.52766 15.4771 7.22559 15.7354C4.34105 16.3069 2.75 18.3639 2.75 21C2.75 21.4142 2.41421 21.75 2 21.75C1.58579 21.75 1.25 21.4142 1.25 21Z" fill="#404040"/>
</svg>
