<svg preserveAspectRatio="none" overflow="visible" style="display: block;" width="24" height="24" viewBox="0 0 24 24" fill="none" xmlns="http://www.w3.org/2000/svg">
<g id="Loader">
<path id="Vector" d="M11.25 22V18C11.25 17.5858 11.5858 17.25 12 17.25C12.4142 17.25 12.75 17.5858 12.75 18V22C12.75 22.4142 12.4142 22.75 12 22.75C11.5858 22.75 11.25 22.4142 11.25 22ZM7.26953 15.6699C7.56242 15.377 8.03718 15.377 8.33008 15.6699C8.62297 15.9628 8.62297 16.4376 8.33008 16.7305L5.43066 19.6299C5.13777 19.9228 4.66301 19.9228 4.37012 19.6299C4.07722 19.337 4.07722 18.8622 4.37012 18.5693L7.26953 15.6699ZM15.6699 15.6699C15.9628 15.377 16.4376 15.377 16.7305 15.6699L19.6299 18.5693C19.9228 18.8622 19.9228 19.337 19.6299 19.6299C19.337 19.9228 18.8622 19.9228 18.5693 19.6299L15.6699 16.7305C15.377 16.4376 15.377 15.9628 15.6699 15.6699ZM6 11.25C6.41421 11.25 6.75 11.5858 6.75 12C6.75 12.4142 6.41421 12.75 6 12.75H2C1.58579 12.75 1.25 12.4142 1.25 12C1.25 11.5858 1.58579 11.25 2 11.25H6ZM22 11.25C22.4142 11.25 22.75 11.5858 22.75 12C22.75 12.4142 22.4142 12.75 22 12.75H18C17.5858 12.75 17.25 12.4142 17.25 12C17.25 11.5858 17.5858 11.25 18 11.25H22ZM4.37012 4.37012C4.66301 4.07722 5.13777 4.07722 5.43066 4.37012L8.33008 7.26953C8.62297 7.56242 8.62297 8.03718 8.33008 8.33008C8.03718 8.62297 7.56242 8.62297 7.26953 8.33008L4.37012 5.43066C4.07722 5.13777 4.07722 4.66301 4.37012 4.37012ZM18.5693 4.37012C18.8622 4.07722 19.337 4.07722 19.6299 4.37012C19.9228 4.66301 19.9228 5.13777 19.6299 5.43066L16.7305 8.33008C16.4376 8.62297 15.9628 8.62297 15.6699 8.33008C15.377 8.03718 15.377 7.56242 15.6699 7.26953L18.5693 4.37012ZM11.25 6V2C11.25 1.58579 11.5858 1.25 12 1.25C12.4142 1.25 12.75 1.58579 12.75 2V6C12.75 6.41421 12.4142 6.75 12 6.75C11.5858 6.75 11.25 6.41421 11.25 6Z" fill="#404040"/>
</g>
</svg>
