<svg preserveAspectRatio="none" overflow="visible" style="display: block;" width="24" height="24" viewBox="0 0 24 24" fill="none" xmlns="http://www.w3.org/2000/svg">
<g id="moon">
<path id="Vector (Stroke)" d="M11.5733 2.26327C12.0725 2.27627 12.4465 2.58815 12.6221 2.95566C12.8026 3.33358 12.8019 3.81323 12.5498 4.21542L12.5489 4.21444C11.9199 5.22108 11.6509 6.41201 11.7852 7.5914C11.9196 8.77087 12.4507 9.87015 13.2901 10.7096C14.1295 11.5489 15.2288 12.0792 16.4082 12.2135C17.5877 12.3477 18.7776 12.0779 19.7842 11.4488C20.1854 11.1981 20.6644 11.1953 21.043 11.3756C21.4361 11.5629 21.7633 11.9772 21.7334 12.5269C21.6318 14.4076 20.9877 16.2184 19.8789 17.7408C18.7701 19.2633 17.2443 20.4324 15.4854 21.106C13.7265 21.7797 11.81 21.9289 9.96781 21.5367C8.12554 21.1444 6.43648 20.2269 5.10453 18.8951C3.77268 17.5634 2.85445 15.8749 2.46195 14.0328C2.06949 12.1906 2.21912 10.2733 2.89261 8.51425C3.56606 6.75551 4.73474 5.22967 6.25687 4.12069C7.7793 3.01163 9.5909 2.36696 11.4717 2.26523L11.5733 2.26327ZM11.0547 3.80624C9.64292 3.96876 8.29389 4.49255 7.14066 5.33261C5.85245 6.27105 4.86386 7.56294 4.29398 9.05136C3.72416 10.5397 3.59668 12.1616 3.92875 13.7203C4.26087 15.279 5.03813 16.7077 6.16507 17.8346C7.2921 18.9615 8.72149 19.738 10.2803 20.0699C11.8391 20.4017 13.461 20.2747 14.9493 19.7047C16.4374 19.1346 17.7288 18.1461 18.667 16.858C19.5071 15.7045 20.0301 14.355 20.1924 12.943C18.9851 13.5908 17.6066 13.8595 16.2383 13.7037C14.7217 13.531 13.3079 12.8494 12.2286 11.7701C11.1493 10.6908 10.4677 9.27686 10.295 7.76034C10.1393 6.39225 10.4071 5.01336 11.0547 3.80624Z" fill="#404040"/>
</g>
</svg>
